<?xml version="1.0" encoding="UTF-8" standalone="no"?>
<svg
   xmlns:dc="http://purl.org/dc/elements/1.1/"
   xmlns:cc="http://creativecommons.org/ns#"
   xmlns:rdf="http://www.w3.org/1999/02/22-rdf-syntax-ns#"
   xmlns:svg="http://www.w3.org/2000/svg"
   xmlns="http://www.w3.org/2000/svg"
   id="svg9580"
   version="1.1"
   viewBox="0 0 50.720325 13.20091"
   height="13.20091mm"
   width="50.720325mm">
  <defs
     id="defs9574" />
  <metadata
     id="metadata9577">
    <rdf:RDF>
      <cc:Work
         rdf:about="">
        <dc:format>image/svg+xml</dc:format>
        <dc:type
           rdf:resource="http://purl.org/dc/dcmitype/StillImage" />
        <dc:title></dc:title>
      </cc:Work>
    </rdf:RDF>
  </metadata>
  <g
     transform="translate(-84.662584,-139.53006)"
     id="layer1">
    <path
       style="opacity:1;fill-opacity:1;stroke:none;stroke-width:0.74083334;stroke-linecap:round;stroke-linejoin:round;stroke-miterlimit:4;stroke-dasharray:none;stroke-dashoffset:0;stroke-opacity:1;paint-order:stroke fill markers"
       d="m 135.38291,152.49934 0,-9.76788 c 0,-1.6004 -1.601,-3.2014 -3.20141,-3.2014 l -44.317515,0 c -1.6004,0 -3.201404,1.601 -3.201404,3.2014 l 3e-6,9.54252 c 0.228459,0.0371 0.440486,0.0784 0.68911,0.11032 0.464451,0.0597 0.96327,0.11052 1.493385,0.15351 0.530082,0.0428 1.091531,0.0778 1.681179,0.10556 0.589647,0.0278 1.207427,0.0483 1.850572,0.0626 1.286226,0.0283 2.673385,0.0314 4.136965,0.0152 1.46359,-0.0152 3.00367,-0.0512 4.59596,-0.0987 1.592265,-0.0476 3.236695,-0.10785 4.908955,-0.17404 1.6722,-0.0662 3.37215,-0.13848 5.07567,-0.21049 1.70351,-0.0719 3.41052,-0.14343 5.09663,-0.20815 1.68606,-0.0647 3.35129,-0.1225 4.97126,-0.16701 1.61998,-0.0445 3.1947,-0.0759 4.69986,-0.0873 1.50518,-0.0114 2.94079,-0.004 4.28248,0.0316 0.67084,0.0171 1.31829,0.0411 1.93915,0.0723 0.62083,0.0312 1.21506,0.0698 1.77984,0.11641 0.56474,0.0468 1.09997,0.10157 1.60255,0.16548 0.50258,0.0639 0.97263,0.13677 1.40695,0.21949 0.18565,0.0354 0.33749,0.0799 0.50981,0.11888 z"
       id="path4356-6-1" />
  </g>
</svg>
